<svg width="20" height="21" viewBox="0 0 20 21" fill="none" xmlns="http://www.w3.org/2000/svg">
<path fill-rule="evenodd" clip-rule="evenodd" d="M5.5 4.5V5.25H3.513C2.553 5.25 1.749 5.974 1.648 6.929L0.384998 18.929C0.357528 19.1903 0.3853 19.4545 0.466513 19.7045C0.547726 19.9544 0.680566 20.1844 0.856417 20.3797C1.03227 20.575 1.2472 20.7311 1.48728 20.838C1.72736 20.9448 1.98721 21 2.25 21H17.75C18.0128 21 18.2726 20.9448 18.5127 20.838C18.7528 20.7311 18.9677 20.575 19.1436 20.3797C19.3194 20.1844 19.4523 19.9544 19.5335 19.7045C19.6147 19.4545 19.6425 19.1903 19.615 18.929L18.352 6.929C18.3036 6.46815 18.0862 6.04155 17.7418 5.73151C17.3974 5.42146 16.9504 5.24993 16.487 5.25H14.5V4.5C14.5 3.30653 14.0259 2.16193 13.182 1.31802C12.3381 0.474106 11.1935 0 10 0C8.80652 0 7.66193 0.474106 6.81802 1.31802C5.9741 2.16193 5.5 3.30653 5.5 4.5ZM10 1.5C9.20435 1.5 8.44129 1.81607 7.87868 2.37868C7.31607 2.94129 7 3.70435 7 4.5V5.25H13V4.5C13 3.70435 12.6839 2.94129 12.1213 2.37868C11.5587 1.81607 10.7956 1.5 10 1.5ZM7 9.75C7 10.5456 7.31607 11.3087 7.87868 11.8713C8.44129 12.4339 9.20435 12.75 10 12.75C10.7956 12.75 11.5587 12.4339 12.1213 11.8713C12.6839 11.3087 13 10.5456 13 9.75V9C13 8.80109 13.079 8.61032 13.2197 8.46967C13.3603 8.32902 13.5511 8.25 13.75 8.25C13.9489 8.25 14.1397 8.32902 14.2803 8.46967C14.421 8.61032 14.5 8.80109 14.5 9V9.75C14.5 10.9435 14.0259 12.0881 13.182 12.932C12.3381 13.7759 11.1935 14.25 10 14.25C8.80652 14.25 7.66193 13.7759 6.81802 12.932C5.9741 12.0881 5.5 10.9435 5.5 9.75V9C5.5 8.80109 5.57902 8.61032 5.71967 8.46967C5.86032 8.32902 6.05109 8.25 6.25 8.25C6.44891 8.25 6.63968 8.32902 6.78033 8.46967C6.92098 8.61032 7 8.80109 7 9V9.75Z" fill="#DB3C25"/>
</svg>
