<svg width="18" height="19" viewBox="0 0 18 19" fill="none" xmlns="http://www.w3.org/2000/svg">
<path d="M0.75 3.5C0.75 2.90326 0.987053 2.33097 1.40901 1.90901C1.83097 1.48705 2.40326 1.25 3 1.25H5.25C5.84674 1.25 6.41903 1.48705 6.84099 1.90901C7.26295 2.33097 7.5 2.90326 7.5 3.5V5.75C7.5 6.34674 7.26295 6.91903 6.84099 7.34099C6.41903 7.76295 5.84674 8 5.25 8H3C2.40326 8 1.83097 7.76295 1.40901 7.34099C0.987053 6.91903 0.75 6.34674 0.75 5.75V3.5ZM0.75 13.25C0.75 12.6533 0.987053 12.081 1.40901 11.659C1.83097 11.2371 2.40326 11 3 11H5.25C5.84674 11 6.41903 11.2371 6.84099 11.659C7.26295 12.081 7.5 12.6533 7.5 13.25V15.5C7.5 16.0967 7.26295 16.669 6.84099 17.091C6.41903 17.5129 5.84674 17.75 5.25 17.75H3C2.40326 17.75 1.83097 17.5129 1.40901 17.091C0.987053 16.669 0.75 16.0967 0.75 15.5V13.25ZM10.5 3.5C10.5 2.90326 10.7371 2.33097 11.159 1.90901C11.581 1.48705 12.1533 1.25 12.75 1.25H15C15.5967 1.25 16.169 1.48705 16.591 1.90901C17.0129 2.33097 17.25 2.90326 17.25 3.5V5.75C17.25 6.34674 17.0129 6.91903 16.591 7.34099C16.169 7.76295 15.5967 8 15 8H12.75C12.1533 8 11.581 7.76295 11.159 7.34099C10.7371 6.91903 10.5 6.34674 10.5 5.75V3.5ZM10.5 13.25C10.5 12.6533 10.7371 12.081 11.159 11.659C11.581 11.2371 12.1533 11 12.75 11H15C15.5967 11 16.169 11.2371 16.591 11.659C17.0129 12.081 17.25 12.6533 17.25 13.25V15.5C17.25 16.0967 17.0129 16.669 16.591 17.091C16.169 17.5129 15.5967 17.75 15 17.75H12.75C12.1533 17.75 11.581 17.5129 11.159 17.091C10.7371 16.669 10.5 16.0967 10.5 15.5V13.25Z" stroke="#858585" stroke-width="1.5" stroke-linecap="round" stroke-linejoin="round"/>
</svg>
