<svg width="18" height="19" viewBox="0 0 18 19" fill="none" xmlns="http://www.w3.org/2000/svg">
<path fill-rule="evenodd" clip-rule="evenodd" d="M0 3.5C0 2.70435 0.316071 1.94129 0.87868 1.37868C1.44129 0.816071 2.20435 0.5 3 0.5H5.25C6.04565 0.5 6.80871 0.816071 7.37132 1.37868C7.93393 1.94129 8.25 2.70435 8.25 3.5V5.75C8.25 6.54565 7.93393 7.30871 7.37132 7.87132C6.80871 8.43393 6.04565 8.75 5.25 8.75H3C2.20435 8.75 1.44129 8.43393 0.87868 7.87132C0.316071 7.30871 0 6.54565 0 5.75V3.5ZM9.75 3.5C9.75 2.70435 10.0661 1.94129 10.6287 1.37868C11.1913 0.816071 11.9544 0.5 12.75 0.5H15C15.7956 0.5 16.5587 0.816071 17.1213 1.37868C17.6839 1.94129 18 2.70435 18 3.5V5.75C18 6.54565 17.6839 7.30871 17.1213 7.87132C16.5587 8.43393 15.7956 8.75 15 8.75H12.75C11.9544 8.75 11.1913 8.43393 10.6287 7.87132C10.0661 7.30871 9.75 6.54565 9.75 5.75V3.5ZM0 13.25C0 12.4544 0.316071 11.6913 0.87868 11.1287C1.44129 10.5661 2.20435 10.25 3 10.25H5.25C6.04565 10.25 6.80871 10.5661 7.37132 11.1287C7.93393 11.6913 8.25 12.4544 8.25 13.25V15.5C8.25 16.2956 7.93393 17.0587 7.37132 17.6213C6.80871 18.1839 6.04565 18.5 5.25 18.5H3C2.20435 18.5 1.44129 18.1839 0.87868 17.6213C0.316071 17.0587 0 16.2956 0 15.5V13.25ZM9.75 13.25C9.75 12.4544 10.0661 11.6913 10.6287 11.1287C11.1913 10.5661 11.9544 10.25 12.75 10.25H15C15.7956 10.25 16.5587 10.5661 17.1213 11.1287C17.6839 11.6913 18 12.4544 18 13.25V15.5C18 16.2956 17.6839 17.0587 17.1213 17.6213C16.5587 18.1839 15.7956 18.5 15 18.5H12.75C11.9544 18.5 11.1913 18.1839 10.6287 17.6213C10.0661 17.0587 9.75 16.2956 9.75 15.5V13.25Z" fill="#DB3C25"/>
</svg>
